<svg width="20" height="20" viewBox="0 0 20 20" fill="none" xmlns="http://www.w3.org/2000/svg">
<rect opacity="0.2" width="20" height="20" rx="10" fill="#1DBF73"/>
<path d="M10 5C7.24 5 5 7.24 5 10C5 12.76 7.24 15 10 15C12.76 15 15 12.76 15 10C15 7.24 12.76 5 10 5ZM8.365 7.83C8.77 7.83 9.105 8.16 9.105 8.57C9.105 8.975 8.775 9.31 8.365 9.31C7.96 9.31 7.625 8.98 7.625 8.57C7.625 8.16 7.955 7.83 8.365 7.83ZM8.425 11.9C8.35 11.975 8.255 12.01 8.16 12.01C8.065 12.01 7.97 11.975 7.895 11.9C7.75 11.755 7.75 11.515 7.895 11.37L11.17 8.095C11.315 7.95 11.555 7.95 11.7 8.095C11.845 8.24 11.845 8.48 11.7 8.625L8.425 11.9ZM11.635 12.17C11.23 12.17 10.895 11.84 10.895 11.43C10.895 11.025 11.225 10.69 11.635 10.69C12.04 10.69 12.375 11.02 12.375 11.43C12.375 11.84 12.045 12.17 11.635 12.17Z" fill="#1DBF73"/>
</svg>
