<svg width="22" height="22" viewBox="0 0 22 22" fill="none" xmlns="http://www.w3.org/2000/svg">
<path d="M10.9998 7.33341C12.0082 7.33341 12.8332 6.50841 12.8332 5.50008C12.8332 4.49175 12.0082 3.66675 10.9998 3.66675C9.9915 3.66675 9.1665 4.49175 9.1665 5.50008C9.1665 6.50841 9.9915 7.33341 10.9998 7.33341ZM10.9998 9.16675C9.9915 9.16675 9.1665 9.99175 9.1665 11.0001C9.1665 12.0084 9.9915 12.8334 10.9998 12.8334C12.0082 12.8334 12.8332 12.0084 12.8332 11.0001C12.8332 9.99175 12.0082 9.16675 10.9998 9.16675ZM10.9998 14.6667C9.9915 14.6667 9.1665 15.4917 9.1665 16.5001C9.1665 17.5084 9.9915 18.3334 10.9998 18.3334C12.0082 18.3334 12.8332 17.5084 12.8332 16.5001C12.8332 15.4917 12.0082 14.6667 10.9998 14.6667Z" fill="#B6B4BA"/>
</svg>
