<svg width="23" height="17" viewBox="0 0 23 17" fill="none" xmlns="http://www.w3.org/2000/svg">
<path fill-rule="evenodd" clip-rule="evenodd" d="M0 0H9.85714V7.93333H0V0Z" fill="#1A47B8"/>
<path fill-rule="evenodd" clip-rule="evenodd" d="M9.85714 0V1.13333H23V0H9.85714ZM9.85714 2.26667V3.4H23V2.26667H9.85714ZM9.85714 4.53333V5.66667H23V4.53333H9.85714ZM9.85714 6.8V7.93333H23V6.8H9.85714ZM0 9.06667V10.2H23V9.06667H0ZM0 11.3333V12.4667H23V11.3333H0ZM0 13.6V14.7333H23V13.6H0ZM0 15.8667V17H23V15.8667H0Z" fill="#F93939"/>
<path fill-rule="evenodd" clip-rule="evenodd" d="M1.09524 1.13333V2.26667H2.19048V1.13333H1.09524ZM3.28571 1.13333V2.26667H4.38095V1.13333H3.28571ZM5.47619 1.13333V2.26667H6.57143V1.13333H5.47619ZM7.66667 1.13333V2.26667H8.7619V1.13333H7.66667ZM6.57143 2.26667V3.4H7.66667V2.26667H6.57143ZM4.38095 2.26667V3.4H5.47619V2.26667H4.38095ZM2.19048 2.26667V3.4H3.28571V2.26667H2.19048ZM1.09524 3.4V4.53333H2.19048V3.4H1.09524ZM3.28571 3.4V4.53333H4.38095V3.4H3.28571ZM5.47619 3.4V4.53333H6.57143V3.4H5.47619ZM7.66667 3.4V4.53333H8.7619V3.4H7.66667ZM1.09524 5.66667V6.8H2.19048V5.66667H1.09524ZM3.28571 5.66667V6.8H4.38095V5.66667H3.28571ZM5.47619 5.66667V6.8H6.57143V5.66667H5.47619ZM7.66667 5.66667V6.8H8.7619V5.66667H7.66667ZM6.57143 4.53333V5.66667H7.66667V4.53333H6.57143ZM4.38095 4.53333V5.66667H5.47619V4.53333H4.38095ZM2.19048 4.53333V5.66667H3.28571V4.53333H2.19048Z" fill="white"/>
</svg>
