<svg width="20" height="20" viewBox="0 0 20 20" fill="none" xmlns="http://www.w3.org/2000/svg">
<path opacity="0.2" d="M10.0001 18.3334C14.6025 18.3334 18.3334 14.6025 18.3334 10.0001C18.3334 5.39771 14.6025 1.66675 10.0001 1.66675C5.39771 1.66675 1.66675 5.39771 1.66675 10.0001C1.66675 14.6025 5.39771 18.3334 10.0001 18.3334Z" fill="#737373"/>
<path d="M10 11.4584C10.3417 11.4584 10.625 11.1751 10.625 10.8334V6.66675C10.625 6.32508 10.3417 6.04175 10 6.04175C9.65833 6.04175 9.375 6.32508 9.375 6.66675V10.8334C9.375 11.1751 9.65833 11.4584 10 11.4584Z" fill="#737373"/>
<path d="M10.7667 13.0167C10.7251 12.9167 10.6667 12.825 10.5917 12.7417C10.5084 12.6667 10.4167 12.6083 10.3167 12.5667C10.1167 12.4833 9.88341 12.4833 9.68341 12.5667C9.58341 12.6083 9.49175 12.6667 9.40841 12.7417C9.33341 12.825 9.27508 12.9167 9.23341 13.0167C9.19175 13.1167 9.16675 13.225 9.16675 13.3333C9.16675 13.4417 9.19175 13.55 9.23341 13.65C9.27508 13.7583 9.33341 13.8417 9.40841 13.925C9.49175 14 9.58341 14.0583 9.68341 14.1C9.78341 14.1417 9.89175 14.1667 10.0001 14.1667C10.1084 14.1667 10.2167 14.1417 10.3167 14.1C10.4167 14.0583 10.5084 14 10.5917 13.925C10.6667 13.8417 10.7251 13.7583 10.7667 13.65C10.8084 13.55 10.8334 13.4417 10.8334 13.3333C10.8334 13.225 10.8084 13.1167 10.7667 13.0167Z" fill="#737373"/>
</svg>
