<svg width="14" height="14" viewBox="0 0 14 14" fill="none" xmlns="http://www.w3.org/2000/svg">
<path d="M3.66683 5.66671C3.53498 5.66671 3.40608 5.70581 3.29645 5.77906C3.18682 5.85232 3.10137 5.95643 3.05091 6.07825C3.00045 6.20007 2.98725 6.33411 3.01297 6.46343C3.0387 6.59276 3.10219 6.71154 3.19543 6.80478C3.28866 6.89801 3.40745 6.96151 3.53677 6.98723C3.66609 7.01295 3.80013 6.99975 3.92195 6.94929C4.04377 6.89884 4.14789 6.81339 4.22114 6.70375C4.2944 6.59412 4.3335 6.46523 4.3335 6.33337C4.3335 6.15656 4.26326 5.98699 4.13823 5.86197C4.01321 5.73695 3.84364 5.66671 3.66683 5.66671ZM11.6668 3.00004H11.0002V1.00004C11.0002 0.82323 10.9299 0.65366 10.8049 0.528636C10.6799 0.403612 10.5103 0.333374 10.3335 0.333374H3.66683C3.49002 0.333374 3.32045 0.403612 3.19543 0.528636C3.0704 0.65366 3.00016 0.82323 3.00016 1.00004V3.00004H2.3335C1.80306 3.00004 1.29436 3.21075 0.919283 3.58583C0.54421 3.9609 0.333496 4.46961 0.333496 5.00004V9.00004C0.333496 9.53047 0.54421 10.0392 0.919283 10.4143C1.29436 10.7893 1.80306 11 2.3335 11H3.00016V13C3.00016 13.1769 3.0704 13.3464 3.19543 13.4714C3.32045 13.5965 3.49002 13.6667 3.66683 13.6667H10.3335C10.5103 13.6667 10.6799 13.5965 10.8049 13.4714C10.9299 13.3464 11.0002 13.1769 11.0002 13V11H11.6668C12.1973 11 12.706 10.7893 13.081 10.4143C13.4561 10.0392 13.6668 9.53047 13.6668 9.00004V5.00004C13.6668 4.46961 13.4561 3.9609 13.081 3.58583C12.706 3.21075 12.1973 3.00004 11.6668 3.00004ZM4.3335 1.66671H9.66683V3.00004H4.3335V1.66671ZM9.66683 12.3334H4.3335V9.66671H9.66683V12.3334ZM12.3335 9.00004C12.3335 9.17685 12.2633 9.34642 12.1382 9.47145C12.0132 9.59647 11.8436 9.66671 11.6668 9.66671H11.0002V9.00004C11.0002 8.82323 10.9299 8.65366 10.8049 8.52864C10.6799 8.40361 10.5103 8.33337 10.3335 8.33337H3.66683C3.49002 8.33337 3.32045 8.40361 3.19543 8.52864C3.0704 8.65366 3.00016 8.82323 3.00016 9.00004V9.66671H2.3335C2.15669 9.66671 1.98712 9.59647 1.86209 9.47145C1.73707 9.34642 1.66683 9.17685 1.66683 9.00004V5.00004C1.66683 4.82323 1.73707 4.65366 1.86209 4.52864C1.98712 4.40361 2.15669 4.33337 2.3335 4.33337H11.6668C11.8436 4.33337 12.0132 4.40361 12.1382 4.52864C12.2633 4.65366 12.3335 4.82323 12.3335 5.00004V9.00004Z" fill="#585858"/>
</svg>
