<svg width="18" height="19" viewBox="0 0 18 19" fill="none" xmlns="http://www.w3.org/2000/svg">
<path d="M3.54543 5.16277C3.33021 5.10599 3.15133 4.95655 3.05716 4.75486C2.963 4.55318 2.96329 4.32009 3.05795 4.11863L4.7187 0.584243C4.84246 0.320857 5.10742 0.15284 5.39843 0.153199C5.68944 0.153559 5.95398 0.322232 6.07709 0.585923L6.80971 2.15516C6.83591 2.14486 6.86295 2.13594 6.89078 2.12848C11.2381 0.963611 15.7067 3.54352 16.8715 7.89087C18.0364 12.2382 15.4565 16.7068 11.1091 17.8716C6.7618 19.0365 2.29326 16.4566 1.12839 12.1092C0.757969 10.7268 0.766303 9.32991 1.09074 8.03117C1.19112 7.62931 1.59828 7.38492 2.00015 7.4853C2.40201 7.58569 2.6464 7.99285 2.54602 8.39471C2.28172 9.45271 2.27444 10.5908 2.57728 11.721C3.52774 15.2682 7.17377 17.3732 10.7209 16.4227C14.2681 15.4723 16.3731 11.8262 15.4226 8.2791C14.4877 4.78995 10.9447 2.69613 7.45307 3.53319L8.19226 5.11649C8.31537 5.38018 8.27483 5.69128 8.08825 5.91462C7.90167 6.13795 7.60274 6.23319 7.32136 6.15895L3.54543 5.16277Z" fill="#16AB83"/>
</svg>
