<svg width="13" height="12" viewBox="0 0 13 12" fill="none" xmlns="http://www.w3.org/2000/svg">
<path fill-rule="evenodd" clip-rule="evenodd" d="M0.32587 2.1578C0.436417 1.21262 1.23724 0.5 2.18887 0.5H9.35065C9.47205 0.5 9.58931 0.544173 9.68054 0.624276L11.5209 2.24013C11.9346 2.60341 12.1632 3.13339 12.1434 3.68362L11.9141 10.0658C11.8786 11.0521 11.0688 11.8333 10.0819 11.8333H2.07507C1.18865 11.8333 0.440301 11.1747 0.327739 10.2954C-0.00326002 7.70997 -0.0175187 5.09377 0.285279 2.50485L0.32587 2.1578ZM2.18887 1.5C1.74459 1.5 1.37071 1.8327 1.3191 2.27397L1.27851 2.62102C0.985162 5.12914 0.998975 7.66368 1.31964 10.1685C1.36831 10.5486 1.69184 10.8333 2.07507 10.8333H2.4998V8C2.4998 7.35567 3.02213 6.83333 3.66646 6.83333H8.33313C8.97746 6.83333 9.4998 7.35567 9.4998 8V10.8333H10.0819C10.5305 10.8333 10.8986 10.4782 10.9147 10.0299L11.144 3.64771C11.153 3.39761 11.0491 3.1567 10.8611 2.99158L9.16646 1.50367V3.06665C9.16646 3.71098 8.64413 4.23332 7.9998 4.23332H3.9998C3.35546 4.23332 2.83313 3.71098 2.83313 3.06665V1.5H2.18887ZM3.83313 1.5V3.06665C3.83313 3.1587 3.90775 3.23332 3.9998 3.23332H7.9998C8.09184 3.23332 8.16646 3.1587 8.16646 3.06665V1.5H3.83313ZM8.4998 10.8333H3.4998V8C3.4998 7.90795 3.57442 7.83333 3.66646 7.83333H8.33313C8.42518 7.83333 8.4998 7.90795 8.4998 8V10.8333Z" fill="white"/>
</svg>
