<svg xmlns="http://www.w3.org/2000/svg" xmlns:svgjs="http://svgjs.com/svgjs" xmlns:xlink="http://www.w3.org/1999/xlink" width="288" height="288"><svg xmlns="http://www.w3.org/2000/svg" width="288" height="288" viewBox="0 0 64 64"><path fill="#fff" d="M12.05072 4.46581l3.22949-.44532A.99962.99962 0 1015.00677 2.04l-3.22949.44531A10.01247 10.01247 0 003.23773 13.7578l.604 4.37793a1.00021 1.00021 0 001.98143-.27348l-.604-4.37789A8.01075 8.01075 0 0112.05072 4.46581zM60.15814 45.86229a1.00021 1.00021 0 00-1.98144.27348l.604 4.37789a8.00968 8.00968 0 01-6.83057 9.01855l-1.94287.26758a.99956.99956 0 10.27247 1.98047l1.94335-.26758a10.0114 10.0114 0 008.53907-11.27246z" class="color000 svgShape"/><path fill="#fff" d="M55.64,55.229a5.93891,5.93891,0,0,0,1.16-4.44L50.79,7.199a6.03036,6.03036,0,0,0-6.77006-5.12l-31.7,4.37A6.02661,6.02661,0,0,0,7.2,13.209l6.01,43.59A6.03255,6.03255,0,0,0,19.98,61.91893L51.67993,57.549A5.97054,5.97054,0,0,0,55.64,55.229Zm-10.3-.63a4.405,4.405,0,0,1-5.1-3.6c-.62841-2.63459.29757-6.49819-.95978-8.53008A4.33189,4.33189,0,0,0,37.2,41.789c-.18-.03-.37-.05-.55-.08-.61005,3.76714-2.83594,7.46372-4.85008,10.45a4.43672,4.43672,0,0,1-5.18,1.73l-5.36-1.93A4.416,4.416,0,0,1,24.25,43.649l2.01993.73a12.76276,12.76276,0,0,0,1.71-4.31,5.03719,5.03719,0,0,1-.85-1.89,16.37131,16.37131,0,0,0-1.47-3.31c-.21383.22752-.59647.66532-.75.85.18578.7426.39769,1.38517.58995,2.09A4.41548,4.41548,0,1,1,16.95,40.019c-2.48326-7.2.54515-9.21735,5.01-14.25-9.28727-2.0423-8.89612-15.39278.59009-16.84A8.581,8.581,0,0,1,31.79,20.159a4.36049,4.36049,0,0,1,.8,1.8c.34.07.8.11,1.2.15l5.48-7.86a4.32655,4.32655,0,0,1,2.84-1.82,4.43079,4.43079,0,0,1,4.39989,6.86006L40.74994,27.549c-.71205,1.36083-3.1494,3.36164-5.26,3.4.29.58.59,1.19.87,1.83,6.58337.40156,11.97769,3.54206,12.36994,11.4702.13677,1.76406-.04307,3.66708.21007,5.24983A4.41078,4.41078,0,0,1,45.34,54.599Z" class="color000 svgShape"/><path fill="#fff" d="M46.79,46.669c.35491-8.36286-3.836-11.55812-11.29014-11.99974A.97069.97069,0,0,1,34.73,34.059c-.53417-1.3195-1.15855-2.44618-1.75-3.65a.99539.99539,0,0,1,.06-1c.602-.77707,1.46405-.25169,2.41-.47a5.289,5.289,0,0,0,3.65992-2.53006L44.86993,18.149a2.41357,2.41357,0,0,0-3.96-2.75988L35.15,23.649a.92035.92035,0,0,0-.05.08,1.07621,1.07621,0,0,1-1.11006.4c-1.28653-.1831-3.11069-.02156-3.32-1.40991a2.40988,2.40988,0,0,0-.73-1.65006.99362.99362,0,0,1-.21-1.1,6.58107,6.58107,0,0,0-6.91015-9.05987c-8.15473,1.32533-7.1098,13.211,1.18024,13.0299a.99575.99575,0,0,1,.78991,1.66l-4.53,5.07c-2.37633,2.295-2.65292,5.14108-1.60979,8.03007.284,1.6382,1.39748,2.98922,3.17988,2.54992a2.415,2.415,0,0,0,1.7299-2.93,12.95974,12.95974,0,0,1-.68-3c.13427-.75178,1.71332-2.17293,2.27994-2.89005a1.011,1.011,0,0,1,1.65.24006,29.76519,29.76519,0,0,1,2.27,5.08,3.1819,3.1819,0,0,0,.71,1.39,1.02173,1.02173,0,0,1,.23.75c-.40869,2.73133-1.08066,3.85246-2.45994,6.23a.99218.99218,0,0,1-1.19009.42l-2.8-1a2.412,2.412,0,0,0-1.63,4.54L27.29,52.009a2.43637,2.43637,0,0,0,2.84-.95c2.055-3.0468,4.31017-6.77159,4.67994-10.58A1.00965,1.00965,0,0,1,35.92,39.599c8.05748.43117,5.3373,5.40378,6.3,11.06006a2.39058,2.39058,0,0,0,2.7,1.97994,2.43311,2.43311,0,0,0,2.05-2.8A19.97193,19.97193,0,0,1,46.79,46.669Z" class="color000 svgShape"/></svg></svg>