<svg xmlns="http://www.w3.org/2000/svg" xmlns:svgjs="http://svgjs.com/svgjs" xmlns:xlink="http://www.w3.org/1999/xlink" width="288" height="288"><svg xmlns="http://www.w3.org/2000/svg" width="288" height="288" enable-background="new 0 0 48 48" viewBox="0 0 48 48"><path fill="#fff" d="M13 25c-2.757 0-5-2.243-5-5s2.243-5 5-5 5 2.243 5 5S15.757 25 13 25zM13 17c-1.654 0-3 1.346-3 3s1.346 3 3 3 3-1.346 3-3S14.654 17 13 17zM17 48H9c-.552 0-1-.447-1-1V28c0-.553.448-1 1-1h8c.552 0 1 .447 1 1v19C18 47.553 17.552 48 17 48zM10 46h6V29h-6V46z" class="color000 svgShape"/><path fill="#fff" d="M22 36h-5c-.552 0-1-.447-1-1v-4c0-.553.448-1 1-1h5c.552 0 1 .447 1 1v4C23 35.553 22.552 36 22 36zM18 34h3v-2h-3V34zM5 48H1c-.552 0-1-.447-1-1V19.339c0-.553.448-1 1-1h4c.552 0 1 .447 1 1V47C6 47.553 5.552 48 5 48zM2 46h2V20.339H2V46zM35 25c-2.757 0-5-2.243-5-5s2.243-5 5-5 5 2.243 5 5S37.757 25 35 25zM35 17c-1.654 0-3 1.346-3 3s1.346 3 3 3 3-1.346 3-3S36.654 17 35 17zM39 48h-8c-.552 0-1-.447-1-1V28c0-.553.448-1 1-1h8c.552 0 1 .447 1 1v19C40 47.553 39.552 48 39 48zM32 46h6V29h-6V46z" class="color000 svgShape"/><path fill="#fff" d="M31 36h-5c-.552 0-1-.447-1-1v-4c0-.553.448-1 1-1h5c.552 0 1 .447 1 1v4C32 35.553 31.552 36 31 36zM27 34h3v-2h-3V34zM47 48h-4c-.552 0-1-.447-1-1V19.339c0-.553.448-1 1-1h4c.552 0 1 .447 1 1V47C48 47.553 47.552 48 47 48zM44 46h2V20.339h-2V46z" class="color000 svgShape"/><path fill="#fff" d="M31 40H17c-.552 0-1-.447-1-1v-4c0-.553.448-1 1-1h14c.552 0 1 .447 1 1v4C32 39.553 31.552 40 31 40zM18 38h12v-2H18V38zM27 18h-6c-.552 0-1-.447-1-1v-.508c0-.899-.426-1.76-1.201-2.422-1.864-1.595-2.882-3.915-2.794-6.364.15-4.179 3.676-7.636 7.859-7.705 2.183-.049 4.204.78 5.745 2.296C31.151 3.813 32 5.838 32 8c0 2.295-.991 4.481-2.718 5.999C28.455 14.726 28 15.658 28 16.625V17C28 17.553 27.552 18 27 18zM21.974 16h4.064c.161-1.315.83-2.542 1.923-3.503C29.257 11.358 30 9.72 30 8c0-1.621-.637-3.141-1.792-4.277-1.155-1.137-2.686-1.753-4.31-1.722-3.137.052-5.781 2.644-5.894 5.777-.066 1.837.697 3.576 2.095 4.772C21.172 13.468 21.838 14.704 21.974 16z" class="color000 svgShape"/><path fill="#fff" d="M27,22h-6c-0.552,0-1-0.447-1-1v-4c0-0.553,0.448-1,1-1h6c0.552,0,1,0.447,1,1v4C28,21.553,27.552,22,27,22z M22,20h4v-2
		h-4V20z" class="color000 svgShape"/></svg></svg>