<svg width="19" height="19" viewBox="0 0 19 19" fill="none" xmlns="http://www.w3.org/2000/svg">
<circle cx="9.5" cy="9.5" r="9" fill="#007860" stroke="white"/>
<path d="M9.67794 4.86987C9.49019 4.54631 9.02294 4.54631 8.83519 4.86987L7.51296 7.14856C7.42021 7.30839 7.2599 7.41747 7.07718 7.44507L4.59923 7.81933C4.18304 7.88219 4.03706 8.40767 4.36118 8.6762L6.20715 10.2056C6.37802 10.3471 6.45837 10.5704 6.41686 10.7884L5.93398 13.3243C5.85765 13.7251 6.27847 14.0366 6.63954 13.8465L8.97284 12.6179C9.15043 12.5244 9.3627 12.5244 9.54029 12.6179L11.8736 13.8465C12.2347 14.0366 12.6555 13.7251 12.5791 13.3243L12.0963 10.7884C12.0548 10.5704 12.1351 10.3471 12.306 10.2056L14.1519 8.6762C14.4761 8.40767 14.3301 7.88219 13.9139 7.81933L11.4359 7.44507C11.2532 7.41747 11.0929 7.30839 11.0002 7.14856L9.67794 4.86987Z" fill="white"/>
</svg>
