<svg width="20" height="20" viewBox="0 0 20 20" fill="none" xmlns="http://www.w3.org/2000/svg">
<rect opacity="0.2" width="20" height="20" rx="10" fill="#FFA043"/>
<path d="M9.30459 5.46904C9.55709 4.84316 10.4432 4.84316 10.6957 5.46904L11.6643 7.8701C11.6997 7.95781 11.7815 8.01805 11.8758 8.02574L14.3089 8.22427C14.9686 8.2781 15.2402 9.09781 14.7432 9.53495L12.897 11.1588C12.8286 11.2189 12.7984 11.3114 12.8179 11.4002L13.4083 14.0838C13.5558 14.7541 12.7999 15.254 12.2408 14.8559L10.1451 13.3637C10.0583 13.3019 9.94192 13.3019 9.85512 13.3637L7.75945 14.8559C7.20033 15.254 6.44448 14.7541 6.59196 14.0838L7.18235 11.4002C7.2019 11.3114 7.17162 11.2189 7.10329 11.1588L5.25697 9.53496C4.75994 9.09783 5.03157 8.2781 5.69129 8.22427L8.12444 8.02574C8.21871 8.01805 8.30057 7.95781 8.33596 7.8701L9.30459 5.46904Z" fill="#FFA043"/>
</svg>
