<svg width="24" height="24" viewBox="0 0 24 24" fill="none" xmlns="http://www.w3.org/2000/svg">
<path d="M10.5743 11.5241L9.28866 10.9983C8.70436 11.6996 7.71102 12.1669 6.54217 12.1669C5.37358 12.1669 4.3217 11.6994 3.79568 10.9983L2.51006 11.5241C1.92577 11.7579 1.575 12.4007 1.69198 12.985L2.68532 18.6531C2.8021 19.2374 3.38659 19.705 3.97093 19.705H9.11314C9.69744 19.705 10.2817 19.2374 10.3988 18.6531L11.3921 12.985C11.5093 12.4005 11.1 11.6994 10.5742 11.5241H10.5743Z" fill="#84818A"/>
<path d="M8.99656 6.79102C8.99656 6.79102 8.87978 6.44047 8.7043 5.85595C8.35375 4.92089 7.41868 4.27832 6.42534 4.27832C5.54877 4.33681 4.84771 4.80413 4.49694 5.56394C4.49694 5.56394 4.26318 5.91448 4.08791 6.79107C3.91264 7.55067 3.79565 8.60249 3.73737 9.30376C3.73737 9.53753 3.91264 9.7128 4.1464 9.7128H9.05482C9.28858 9.7128 9.46385 9.53752 9.46385 9.30376C9.34707 8.54416 9.23008 7.49234 8.99653 6.79107L8.99656 6.79102Z" fill="#84818A"/>
<path d="M21.56 11.5242L18.9888 10.4724L17.528 15.3226L16.0671 10.4724L13.4959 11.5242C12.9116 11.758 12.5608 12.4008 12.6778 12.9851L13.6712 18.6533C13.7879 19.2376 14.3724 19.7051 14.9568 19.7051H20.099C20.6833 19.7051 21.2676 19.2376 21.3846 18.6533L22.3779 12.9851C22.4951 12.4006 22.1446 11.6995 21.5601 11.5242H21.56Z" fill="#84818A"/>
<path d="M20.216 6.96632C20.216 8.45103 19.0126 9.65448 17.528 9.65448C16.0435 9.65448 14.84 8.45103 14.84 6.96632C14.84 5.48182 16.0435 4.27832 17.528 4.27832C19.0126 4.27832 20.216 5.48176 20.216 6.96632Z" fill="#84818A"/>
</svg>
