<svg xmlns="http://www.w3.org/2000/svg" xmlns:svgjs="http://svgjs.com/svgjs" xmlns:xlink="http://www.w3.org/1999/xlink" width="288" height="288"><svg xmlns="http://www.w3.org/2000/svg" width="288" height="288" enable-background="new 0 0 500 500" viewBox="0 0 500 500"><path fill="#fff" d="M292.065,407.395l93.199-52.548v-15.545c4.741,2.543,9.233,5.211,13.389,7.996
		l19.19-10.82c-6.269-4.9-13.532-9.612-21.793-14.121c-27.5-15.01-58.743-23.869-74.919-27.813
		c-11.616-2.833-19.461-8.046-23.318-15.497c-1.325-2.56-2.138-5.264-2.595-7.961c3.129-3.012,5.221-5.774,6.417-7.556
		c6.397-4.269,32.558-25.507,34.669-88.409c2.374-10.72,3.864-21.225,4.777-30.757c5.162-33.998,4.219-72-9.757-90.845
		c-15.646-21.099-27.16-20.195-33.796-21.667c-52.396-29.187-110.286-8.824-128.87,24.97c-15.926,28.961-12.023,66.563-8.102,87.003
		c1.398,14.902,4.2,32.24,9.608,49.068c5.356,45.025,23.987,63.562,31.534,69.337c0.777,1.313,2.653,4.196,5.868,7.55
		c-0.313,2.706-1,5.445-2.249,8.061c-3.742,7.84-12.108,13.469-24.869,16.73c-20.051,5.125-49.296,14.135-74.748,27.954
		c-29.985,16.28-46.923,35.206-50.345,56.251c-6.398,39.355-19.997,91.552-20.133,92.075c-1.397,5.343,1.803,10.807,7.146,12.204
		c0.848,0.222,1.698,0.328,2.536,0.328c4.439,0,8.493-2.978,9.668-7.473c0.567-2.17,13.972-53.621,20.524-93.924
		c1.634-10.05,9.925-25.476,40.147-41.884c1.527-0.829,3.073-1.64,4.632-2.432V483.98h176.184l-11.17-61.963
		C284.029,416.129,286.881,410.318,292.065,407.395z M266.684,404.548l-7.104-45.595c-0.297-0.858-0.657-1.611-1.042-2.311
		l13.519-15.586l19.336,17.308L266.684,404.548z M212.042,359.506l20.081-17.882l13.025,15.018c-0.386,0.7-0.746,1.453-1.042,2.311
		l-7.176,46.063L212.042,359.506z M290.735,301.634c4.774,4.071,10.562,7.353,17.342,9.822l-12.315,30.688l-29.473-26.381
		L290.735,301.634z M209.042,342.092l-12.405-31.859c6.183-2.558,11.477-5.757,15.864-9.583l26.125,15.099L209.042,342.092z
		 M279.964,288.072c0.326,0.635,0.676,1.252,1.029,1.868l-28.522,16.485l-30.359-17.547c0.474-0.852,0.924-1.72,1.343-2.609
		c0.681-1.444,1.259-2.896,1.759-4.35c7.051,3.043,15.871,5.189,26.762,5.189c10.273,0,18.718-1.91,25.584-4.68
		C278.22,284.32,279.009,286.208,279.964,288.072z M257.241,146.699h-13.843c-7.535-2.922-16.038-4.382-24.341-4.987
		c36.735-10.708,62.731-39.088,62.731-39.088c9.617,3.767,20.959,22.161,30.324,40.713
		C281.029,140.89,261.971,145.795,257.241,146.699z M307.065,154.964c-0.16,8.554-2.191,21.008-8.7,22.287
		c-15.468,3.039-23.934,2.024-27.451-3.289c-3.798-5.739-6.395-12.493-7.391-16.29c2.616-0.615,6.813-1.449,12.47-2.095
		C283.083,154.769,293.629,154.143,307.065,154.964z M237.116,157.474c-0.956,3.755-3.578,10.648-7.442,16.489
		c-3.517,5.314-11.983,6.329-27.451,3.289c-6.667-1.31-8.635-14.342-8.708-22.9C205.304,153.391,223.256,153.009,237.116,157.474z
		 M187.34,180.489c2.772,4.026,6.707,7.143,12.289,8.239c6.604,1.298,12.132,1.947,16.939,1.947c2.148,0,4.153-0.12,6.045-0.372
		c8.038-1.072,14.019-4.491,17.776-10.167c2.892-4.369,5.631-9.99,7.516-15.289c0.869-2.442,1.422-5.149,1.758-6.149h1.261
		c0.336,1,0.89,3.707,1.759,6.149c1.885,5.299,4.625,10.882,7.517,15.251c3.756,5.676,9.737,9.117,17.776,10.19
		c1.893,0.251,3.896,0.389,6.045,0.389c4.807,0,10.335-0.633,16.939-1.931c7.103-1.396,11.541-6.056,14.304-11.702
		c-1.724,6.75-3.853,13.496-6.486,19.961c-2.532,6.214-5.343,11.764-8.434,16.679c-1.634-0.413-3.36-1.17-5.188-2.338
		c-0.416-0.266-0.812-0.51-1.219-0.767c-14.368-12.935-35.013-16.836-41.961-16.836c-7.18,0-28.566,4.167-42.949,18.166
		c-2.71,1.554-5.192,2.205-7.469,2.119c-3.176-4.999-6.059-10.664-8.649-17.023C190.722,191.642,188.888,186.083,187.34,180.489z
		 M257.051,230.208H244.72c0,0-0.447,6.12-3.432,11.269c-8.937-1.33-16.887-4.614-23.909-9.873v-4.333
		c0,0,12.924-17.853,34.746-17.853s33.494,17.229,33.494,17.229v3.945c-7.373,5.88-15.802,9.501-25.353,10.901
		C257.472,236.282,257.051,230.208,257.051,230.208z" class="color474747 svgShape"/><path fill="#fff" d="M479.383,477.058L457.755,376.79c-0.501-2.325-2.076-4.274-4.244-5.253
		c-2.168-0.979-4.671-0.872-6.747,0.288c-2.815,1.574-5.739,3.206-8.737,4.879l-13.719-10.527l4.457-2.479
		c3.62-2.013,4.922-6.58,2.909-10.2c-2.013-3.62-6.579-4.922-10.2-2.909l-14.449,8.036c-0.027,0.016-0.055,0.03-0.082,0.046
		l-103.523,57.58c-2.83,1.574-4.33,4.787-3.72,7.967l10.774,56.175c0.689,3.591,3.832,6.089,7.357,6.089
		c0.468,0,0.944-0.044,1.421-0.136c4.068-0.78,6.733-4.71,5.953-8.778l-5.97-31.124c5.068,1.483,10.536,1.868,15.381,1.344
		l6.665,33.085c0.717,3.561,3.847,6.021,7.345,6.021c0.491,0,0.989-0.048,1.489-0.149c4.061-0.818,6.689-4.773,5.872-8.833
		l-7.087-35.184c19.742-10.235,73.979-40.4,96.331-52.866l19.49,90.36c0.759,3.516,3.867,5.92,7.324,5.92
		c0.524,0,1.056-0.055,1.589-0.17C477.682,485.097,480.256,481.107,479.383,477.058z M318.891,429.917
		c-1.03-0.784-2.042-1.854-2.347-3.802l93.479-51.993l13.728,10.534c-38.214,21.253-82.125,45.425-87.104,47.424
		C332.808,433.621,323.453,433.387,318.891,429.917z" class="color474747 svgShape"/></svg></svg>